<?xml version="1.0" standalone="no"?>
<!DOCTYPE svg PUBLIC "-//W3C//DTD SVG 20010904//EN"
 "http://www.w3.org/TR/2001/REC-SVG-20010904/DTD/svg10.dtd">
<svg version="1.0" xmlns="http://www.w3.org/2000/svg"
 width="1469.000000pt" height="379.000000pt" viewBox="0 0 1469.000000 379.000000"
 preserveAspectRatio="xMidYMid meet">

<g transform="translate(0.000000,379.000000) scale(0.100000,-0.100000)"
fill="#000000" stroke="none">
<path d="M4640 3534 l0 -85 -116 -126 c-79 -86 -115 -132 -113 -147 0 -11 1
-254 0 -538 l-1 -518 -100 0 -100 0 0 -155 0 -156 -67 3 -68 3 -3 78 -3 77
-34 0 c-28 0 -36 5 -40 23 -3 12 -5 143 -3 290 l3 267 -52 0 -53 0 0 125 0
125 -75 0 -75 0 0 160 0 160 -185 0 -185 0 0 -160 0 -160 -75 0 -75 0 0 -125
0 -125 -55 0 -55 0 0 -250 0 -250 -110 0 -110 0 0 -80 0 -80 -375 0 -375 0 0
50 0 50 -50 0 -50 0 0 215 0 215 -40 0 -40 0 0 93 0 93 -48 37 c-26 20 -64 52
-84 71 -35 32 -37 38 -34 85 l3 51 -39 0 -38 0 0 -54 0 -55 -84 -68 -85 -68 0
-92 -1 -93 -40 0 -40 0 0 -215 0 -215 -50 0 -50 0 0 -50 0 -50 -371 2 -371 3
-1 75 -2 75 -163 3 -162 2 0 -360 0 -360 7120 0 7120 0 0 125 0 124 -152 3
-153 3 -5 315 -5 315 -405 176 -405 176 -5 -101 -5 -101 -107 -3 -108 -3 0
-79 0 -80 -75 0 -75 0 0 -125 0 -125 -40 0 -40 0 0 140 0 140 -49 0 -50 0 -3
-37 c-3 -37 -4 -38 -43 -38 l-40 0 -3 343 -2 342 -63 0 -63 0 -24 53 c-13 29
-49 77 -80 109 -158 157 -385 112 -498 -101 l-33 -61 -65 0 -64 0 0 -346 0
-346 -37 2 c-21 1 -44 2 -50 1 -10 -1 -13 -26 -13 -91 l0 -90 -80 0 -80 0 0
115 0 115 -110 0 -110 0 -2 633 -3 632 -212 0 -213 0 0 -828 0 -828 -42 3
c-38 3 -43 6 -43 28 0 18 -6 26 -22 28 -22 3 -23 8 -23 98 l0 94 -75 0 -75 0
-2 278 -3 277 -72 3 -73 3 0 194 0 195 -70 0 -70 0 0 90 0 90 -195 0 -195 0 0
-90 0 -90 -70 0 -70 0 0 -195 0 -195 -70 0 -70 0 0 -280 0 -280 -80 0 -80 0 0
-95 0 -95 -35 0 -35 0 0 140 0 140 -30 0 -30 0 0 270 0 270 -395 0 -395 0 0
-270 0 -270 -55 0 c-46 0 -55 -3 -53 -17 4 -56 -1 -63 -42 -63 l-40 0 0 415 0
415 -57 1 -58 0 -140 174 -140 175 -42 0 -43 0 0 -260 0 -260 -44 0 c-30 0
-46 5 -50 15 -3 9 -4 126 -3 261 l2 245 -44 -3 c-50 -3 -44 3 -236 -236 l-90
-112 -57 0 -58 0 0 -605 0 -605 -30 0 -30 0 0 125 0 125 -31 0 -31 0 4 105 3
104 -100 3 -100 3 -3 483 -2 482 -300 0 -300 0 0 -555 0 -555 -30 0 -30 0 0
-226 0 -225 -32 3 -33 3 0 70 -1 70 -64 5 -65 5 -3 518 -2 517 -100 0 -100 0
0 -45 0 -45 -125 0 -125 0 -167 76 c-93 41 -193 86 -223 100 -30 14 -113 51
-185 83 l-130 58 -3 -604 -2 -603 -40 0 -40 0 -2 173 c-3 170 -3 172 -25 175
l-23 3 0 541 0 541 -82 91 c-45 50 -95 105 -111 122 -26 29 -29 40 -32 110 -1
44 -3 82 -4 87 0 4 -14 7 -31 7 l-30 0 0 -86z"/>
<path d="M7254 1069 c-69 -16 -145 -69 -179 -123 -25 -41 -30 -62 -34 -124 -7
-152 42 -217 232 -310 169 -82 199 -120 162 -208 -11 -26 -26 -40 -61 -56 -68
-30 -152 -20 -256 29 -93 43 -98 41 -98 -50 0 -73 21 -95 120 -127 58 -19 86
-22 172 -18 155 6 245 53 303 160 26 47 30 63 30 138 0 75 -3 91 -27 131 -39
66 -77 95 -204 155 -131 62 -171 93 -180 139 -21 115 122 160 275 87 36 -17
68 -29 73 -26 4 3 8 36 8 73 0 77 -7 87 -80 115 -53 21 -198 29 -256 15z"/>
<path d="M5424 1061 c-12 -5 -25 -14 -28 -20 -19 -30 -317 -907 -314 -925 3
-18 11 -21 68 -24 104 -5 104 -5 140 105 18 54 35 101 39 105 3 4 84 9 179 11
129 3 177 1 186 -8 7 -7 25 -53 40 -101 15 -49 35 -95 44 -101 24 -19 166 -17
182 2 10 12 -17 99 -148 476 -89 254 -166 467 -172 473 -13 13 -188 19 -216 7z
m160 -389 c36 -108 66 -200 66 -205 0 -4 -61 -7 -135 -7 -117 0 -135 2 -135
16 0 24 123 394 131 394 4 0 37 -89 73 -198z"/>
<path d="M6100 1061 l-25 -7 0 -354 c0 -405 3 -422 82 -510 66 -74 141 -103
280 -108 94 -4 122 -1 180 17 85 26 137 62 179 124 57 83 59 98 59 482 l0 350
-47 9 c-28 5 -64 5 -90 0 l-43 -9 -5 -345 c-4 -301 -7 -349 -22 -376 -42 -76
-133 -113 -228 -93 -60 13 -103 46 -133 103 -21 39 -22 55 -27 376 l-5 334
-25 7 c-32 9 -98 9 -130 0z"/>
<path d="M8590 1063 c-14 -3 -28 -10 -32 -17 -4 -6 -8 -219 -8 -473 0 -530
-10 -483 100 -483 110 0 100 -48 100 490 0 273 -4 471 -9 474 -14 9 -122 15
-151 9z"/>
<path d="M9625 1060 l-30 -5 -5 -343 -5 -343 -48 98 c-109 220 -283 540 -308
566 -26 26 -32 27 -128 27 -100 0 -130 -10 -131 -43 0 -7 -1 -214 -1 -461 0
-363 2 -450 13 -457 23 -15 134 -11 147 5 9 11 12 107 9 375 -2 199 -2 361 -1
361 2 0 16 -29 32 -65 62 -135 332 -632 357 -656 23 -22 34 -24 116 -24 77 0
92 3 104 19 12 17 14 98 14 477 0 292 -4 460 -10 464 -14 9 -89 12 -125 5z"/>
<path d="M7702 1043 c-11 -28 -8 -111 4 -123 7 -7 59 -12 135 -13 l124 -2 3
-401 2 -402 23 -6 c39 -10 133 -6 150 7 15 11 17 50 19 407 l3 395 120 3 c66
1 126 5 133 7 9 3 12 24 10 72 l-3 68 -358 3 c-334 2 -358 1 -365 -15z"/>
</g>
</svg>
