<?xml version="1.0" standalone="no"?>
<!DOCTYPE svg PUBLIC "-//W3C//DTD SVG 20010904//EN"
 "http://www.w3.org/TR/2001/REC-SVG-20010904/DTD/svg10.dtd">
<svg version="1.0" xmlns="http://www.w3.org/2000/svg"
 width="1442.000000pt" height="439.000000pt" viewBox="0 0 1442.000000 439.000000"
 preserveAspectRatio="xMidYMid meet">

<g transform="translate(0.000000,439.000000) scale(0.100000,-0.100000)"
fill="#000000" stroke="none">
<path d="M3955 4116 c-22 -19 -82 -68 -132 -110 l-93 -76 0 -445 0 -445 -55 0
-55 0 0 -425 0 -425 -80 0 -80 0 0 -290 0 -290 -95 0 -95 0 0 -145 0 -145 -60
0 -60 0 0 472 0 472 -227 228 -228 228 -227 -228 -228 -227 0 -472 0 -473 -40
0 -39 0 -3 -102 -3 -103 -35 0 -35 0 -3 53 -3 52 -125 0 -124 0 0 851 0 851
26 30 c180 215 36 528 -242 528 -138 0 -261 -96 -299 -234 -28 -99 -6 -200 61
-283 l34 -42 -2 -851 -3 -852 -122 1 -122 2 -3 -53 c-3 -52 -4 -53 -33 -53
-27 0 -30 3 -33 38 -3 32 -7 37 -28 37 l-24 0 0 348 -1 347 -39 27 c-39 27
-40 29 -40 87 0 55 -4 66 -51 140 -29 45 -55 81 -59 81 -5 0 -32 -38 -62 -83
-51 -78 -54 -88 -53 -142 1 -56 0 -58 -36 -84 l-38 -26 -3 -345 -3 -345 -97
-3 -98 -3 0 176 0 175 -160 0 -160 0 0 -150 0 -150 -60 0 -60 0 0 -95 0 -95
7120 0 7120 0 0 49 0 50 -47 3 -48 3 -3 348 -2 347 -509 0 -509 0 -35 75 c-64
135 -162 215 -263 215 -107 0 -207 -80 -271 -217 l-34 -73 -510 0 -510 0 1
-262 c0 -145 0 -269 0 -275 0 -10 -25 -13 -89 -13 l-90 0 -3 -32 c-2 -23 -9
-32 -25 -34 l-23 -4 -2 263 -3 262 -240 61 c-132 34 -256 66 -275 71 l-35 9
-3 247 c-2 210 -5 247 -17 247 -13 0 -15 26 -15 166 l0 165 -57 61 -58 60 -57
-62 -58 -63 0 -163 c0 -138 -2 -164 -15 -164 -12 0 -15 -37 -17 -247 l-3 -248
-275 -70 -275 -70 -5 -260 -5 -260 -25 0 c-24 0 -25 2 -28 83 l-3 82 -59 0
-60 0 -2 648 -3 647 -70 5 -70 5 -3 73 c-3 68 -4 72 -27 72 -25 0 -47 30 -202
278 -36 56 -68 102 -71 102 -4 0 -61 -86 -127 -190 -108 -171 -123 -190 -147
-190 l-28 0 0 -75 0 -75 -70 0 -70 0 0 -470 0 -470 -60 0 -59 0 -3 -152 -3
-153 -37 -3 -38 -3 0 1015 0 1015 -67 3 -68 3 -3 53 -3 52 -40 0 -39 0 0 75 0
75 -342 -2 -343 -3 -3 -72 -3 -73 -39 0 -40 0 0 -55 0 -55 -65 0 -65 0 0
-1015 0 -1015 -65 0 -65 0 0 135 0 135 -50 0 -50 0 0 830 0 829 -102 3 -103 3
-3 78 -3 77 -114 0 -115 0 0 121 c0 109 -2 120 -17 117 -16 -3 -18 -18 -21
-121 l-3 -117 -79 0 -80 0 0 121 c0 109 -2 120 -17 117 -16 -3 -18 -18 -21
-121 l-3 -117 -54 0 -55 0 0 -80 0 -80 -40 0 -40 0 0 -830 0 -829 -77 -3 -78
-3 -3 -162 -2 -163 -75 0 -75 0 -2 643 -3 642 -152 3 -153 3 0 69 0 69 -37 3
-38 3 -3 146 c-2 141 -3 147 -22 142 -19 -5 -20 -14 -20 -149 l0 -144 -167 2
-168 3 0 143 c0 141 0 142 -22 142 -23 0 -23 -1 -23 -145 l0 -145 -41 0 -41 0
4 -70 3 -70 -152 0 -153 0 -2 -642 -3 -643 -162 -3 -163 -2 0 400 0 400 -80 0
-80 0 0 425 0 425 -60 0 -60 0 0 445 0 446 -32 28 c-82 71 -234 191 -243 191
-5 0 -28 -16 -50 -34z m-2265 -2081 l0 -815 -70 0 -70 0 0 815 0 815 70 0 70
0 0 -815z"/>
<path d="M9810 950 c-125 -26 -207 -103 -217 -203 -12 -120 38 -182 228 -282
134 -71 184 -114 194 -168 9 -47 -11 -103 -45 -128 -67 -50 -210 -48 -324 4
l-56 26 0 -55 c0 -53 1 -56 33 -68 56 -23 174 -38 240 -31 167 19 257 102 257
236 0 28 -7 66 -16 84 -23 49 -102 119 -175 155 -156 79 -200 110 -221 157
-23 52 -18 90 19 133 52 62 204 77 310 30 25 -11 46 -20 48 -20 1 0 1 23 1 52
-1 48 -3 52 -33 65 -42 17 -186 25 -243 13z"/>
<path d="M4160 501 l0 -441 155 0 c171 0 233 10 315 49 65 30 159 120 189 179
54 105 64 271 26 394 -34 108 -126 198 -238 235 -39 12 -101 17 -249 21 l-198
4 0 -441z m427 320 c73 -32 137 -104 159 -176 23 -80 16 -242 -13 -306 -31
-69 -85 -122 -155 -155 -57 -26 -76 -29 -190 -32 l-128 -4 0 352 0 352 138 -4
c115 -4 145 -8 189 -27z"/>
<path d="M5551 723 c-46 -120 -121 -316 -167 -436 -46 -120 -84 -221 -84 -223
0 -2 24 -4 54 -4 l53 0 44 122 44 123 184 3 c102 1 188 -1 193 -6 5 -5 28 -60
52 -123 l44 -114 56 -3 56 -3 -22 58 c-13 32 -88 229 -169 438 l-146 380 -54
3 -55 3 -83 -218z m218 -121 c39 -106 71 -195 71 -198 0 -2 -70 -4 -156 -4
-145 0 -156 1 -149 18 31 79 133 363 139 387 10 36 1 55 95 -203z"/>
<path d="M6570 500 l0 -440 225 0 225 0 0 45 0 45 -181 0 -180 0 1 383 c1 210
1 388 1 395 -1 8 -17 12 -46 12 l-45 0 0 -440z"/>
<path d="M7510 500 l0 -440 230 0 230 0 0 45 0 45 -180 0 -180 0 0 395 0 395
-50 0 -50 0 0 -440z"/>
<path d="M8697 932 c-5 -7 -299 -769 -323 -835 l-13 -38 55 3 56 3 43 120 42
120 190 3 190 2 48 -125 48 -125 53 0 c30 0 54 1 54 3 0 7 -295 773 -321 833
-18 44 -19 44 -68 44 -27 0 -52 -3 -54 -8z m63 -120 c0 -10 32 -103 70 -207
39 -104 70 -193 70 -199 0 -8 -47 -10 -150 -8 -88 2 -150 7 -150 13 0 5 32 95
70 200 39 105 70 198 70 205 0 8 5 14 10 14 6 0 10 -8 10 -18z"/>
</g>
</svg>
