<?xml version="1.0" standalone="no"?>
<!DOCTYPE svg PUBLIC "-//W3C//DTD SVG 20010904//EN"
 "http://www.w3.org/TR/2001/REC-SVG-20010904/DTD/svg10.dtd">
<svg version="1.0" xmlns="http://www.w3.org/2000/svg"
 width="1338.000000pt" height="495.000000pt" viewBox="0 0 1338.000000 495.000000"
 preserveAspectRatio="xMidYMid meet">

<g transform="translate(0.000000,495.000000) scale(0.100000,-0.100000)"
fill="#000000" stroke="none">
<path d="M2068 3268 l-3 -1383 -65 0 -65 0 -3 718 -2 717 -210 0 -210 0 0 -75
0 -75 -155 0 -155 0 -2 -807 -3 -808 -167 -3 -168 -2 0 -205 0 -205 -35 0 -35
0 0 370 0 370 -155 0 -155 0 0 -370 c0 -322 -2 -370 -15 -370 -13 0 -15 20
-15 120 l0 121 -122 -3 -123 -3 -3 -182 -2 -183 6560 0 6561 0 -3 128 -3 127
-52 3 -53 3 0 185 0 184 -180 0 -180 0 0 -135 0 -136 -61 3 -61 3 1 238 2 237
-155 0 -156 0 0 -240 0 -240 -95 0 -95 0 0 990 0 990 -85 0 -85 0 0 40 0 40
-79 0 -79 0 -45 45 -46 45 -98 0 -99 0 -44 -45 -44 -45 -77 0 -78 0 -3 -37 -3
-38 -87 -3 -88 -3 0 -989 0 -990 -90 0 -90 0 0 1160 0 1161 -145 -3 -145 -3 0
-1142 0 -1143 -130 0 -130 0 0 1030 0 1030 -95 0 c-83 0 -142 10 -452 80 -196
44 -357 79 -359 77 -2 -2 -5 -545 -6 -1208 l-3 -1204 -187 -3 -188 -2 0 1615
0 1615 -68 0 -67 0 -83 110 -83 110 -194 0 -195 0 -2 -1517 -3 -1518 -92 -3
-93 -3 0 256 0 255 -240 0 -240 0 -2 -302 -3 -303 -162 -3 -163 -2 0 764 0
765 -62 3 -63 3 -7 55 c-16 124 -98 707 -103 728 -5 22 -8 22 -158 22 l-153 0
-53 -382 c-29 -211 -55 -393 -58 -405 -5 -21 -11 -23 -64 -23 l-59 0 0 -765 0
-765 -165 0 -165 0 0 305 0 305 -240 0 -240 0 -2 -252 -3 -253 -50 0 -50 0 -3
630 -2 630 -57 57 -57 58 -361 0 -361 0 -62 -63 -62 -63 0 -782 0 -783 -77 3
-78 3 -3 371 -2 372 -45 37 c-44 36 -45 37 -45 96 l0 60 -147 -3 -148 -3 -3
-58 c-3 -54 -6 -60 -48 -99 l-44 -41 0 -369 0 -369 -62 3 -63 3 -5 650 -5 650
-48 170 c-26 94 -50 178 -53 188 -5 16 -29 17 -325 17 l-319 0 0 100 0 100
-140 0 -140 0 0 -80 0 -80 -70 0 -70 0 -2 -602 -3 -603 -97 -3 -98 -3 -2 1418
-3 1418 -302 3 -303 2 -2 -1382z"/>
<path d="M7398 793 c-10 -38 -20 -78 -24 -90 -11 -40 19 -26 48 22 32 54 72
67 186 63 l77 -3 0 -332 c0 -223 -4 -336 -11 -343 -6 -6 -30 -14 -55 -18 -90
-15 -43 -27 114 -28 127 -1 157 1 157 12 0 9 -12 14 -33 14 -18 0 -42 6 -53
14 -18 14 -19 29 -19 348 l0 333 105 0 c128 0 156 -13 166 -75 12 -71 31 -47
37 47 4 48 5 89 2 91 -2 2 -14 -3 -27 -12 -19 -14 -62 -16 -309 -16 -271 0
-288 1 -312 20 -14 11 -27 20 -29 20 -2 0 -11 -30 -20 -67z"/>
<path d="M4574 830 c-197 -42 -337 -250 -304 -453 24 -152 114 -258 261 -307
92 -31 230 -25 310 13 87 42 143 97 186 185 36 73 38 80 38 176 -1 81 -5 112
-23 158 -58 145 -179 226 -347 234 -44 2 -99 -1 -121 -6z m197 -47 c93 -41
159 -145 180 -283 31 -201 -49 -372 -194 -411 -109 -29 -233 17 -300 112 -58
82 -80 168 -75 292 3 87 7 111 31 159 67 136 220 192 358 131z"/>
<path d="M6782 823 c-74 -26 -132 -104 -132 -178 0 -79 60 -157 178 -233 43
-28 93 -66 110 -86 58 -66 52 -173 -11 -218 -26 -18 -45 -23 -99 -23 -59 0
-70 3 -105 30 -21 17 -49 54 -63 82 -43 89 -63 61 -37 -52 17 -72 56 -90 193
-90 94 0 104 2 149 30 92 57 122 172 71 273 -30 58 -48 75 -156 145 -121 77
-150 114 -150 186 0 141 232 163 282 26 6 -19 18 -35 26 -35 12 0 13 11 8 54
-9 79 -12 82 -73 95 -75 15 -138 13 -191 -6z"/>
<path d="M8766 829 c-62 -15 -153 -68 -197 -116 -81 -89 -121 -225 -100 -341
37 -201 188 -322 402 -322 172 0 309 92 370 248 33 83 33 214 0 300 -29 77
-104 163 -170 196 -84 43 -211 57 -305 35z m211 -50 c179 -87 241 -431 108
-604 -81 -107 -259 -125 -374 -38 -114 87 -170 330 -111 488 29 77 99 148 167
169 61 20 152 13 210 -15z"/>
<path d="M5460 822 c-22 -8 -8 -22 20 -22 17 0 39 -9 50 -20 19 -19 20 -33 20
-227 0 -297 16 -373 94 -441 97 -85 313 -83 415 4 76 66 100 169 101 440 0 89
3 175 6 192 6 30 37 52 74 52 11 0 20 5 20 10 0 6 -50 10 -130 10 -127 0 -169
-11 -90 -24 61 -10 64 -23 68 -251 4 -223 -5 -290 -48 -359 -76 -120 -286
-122 -363 -4 -47 72 -52 106 -52 351 0 228 0 229 24 248 13 10 34 19 47 19 21
0 37 19 17 20 -68 3 -266 4 -273 2z"/>
<path d="M3040 811 c0 -5 18 -11 40 -15 31 -5 43 -12 50 -32 13 -33 13 -624 0
-644 -5 -8 -24 -20 -42 -26 -61 -20 -29 -29 112 -30 113 -1 140 1 140 12 0 9
-11 14 -29 14 -16 0 -39 9 -52 19 -22 18 -24 26 -27 160 -3 102 -1 145 8 156
10 12 47 15 210 15 109 0 205 -3 214 -6 14 -5 16 -28 16 -151 0 -79 -5 -153
-10 -163 -6 -11 -26 -22 -45 -26 -19 -3 -35 -12 -35 -18 0 -8 40 -12 140 -12
102 0 140 3 140 11 0 7 -18 15 -40 19 -59 9 -62 29 -58 374 l3 294 24 19 c13
10 34 19 47 19 13 0 24 5 24 10 0 6 -53 10 -140 10 -134 0 -179 -10 -105 -24
19 -4 39 -16 45 -26 6 -12 9 -74 8 -152 l-3 -133 -217 -3 -218 -2 -6 25 c-4
15 -4 78 -2 142 4 106 6 117 27 134 13 11 34 19 47 19 13 0 24 5 24 10 0 6
-55 10 -145 10 -80 0 -145 -4 -145 -9z"/>
<path d="M9640 812 c0 -4 20 -13 45 -20 76 -20 77 -27 73 -366 -2 -160 -8
-299 -12 -309 -5 -10 -24 -20 -47 -23 -21 -4 -39 -12 -39 -18 0 -8 40 -12 130
-12 96 -1 130 2 130 11 0 7 -19 15 -41 18 -23 3 -46 10 -51 15 -5 5 -14 41
-18 78 -12 86 -12 465 -2 482 6 9 18 0 42 -29 18 -23 118 -138 221 -256 104
-118 210 -240 236 -273 26 -32 54 -59 61 -59 9 -1 12 74 12 342 0 382 1 386
63 400 72 17 36 27 -99 27 -132 0 -168 -11 -84 -25 26 -4 45 -14 53 -28 8 -16
13 -97 15 -277 l2 -255 -57 60 c-164 171 -408 455 -432 503 -11 20 -18 22
-106 22 -52 0 -95 -4 -95 -8z"/>
</g>
</svg>
