<?xml version="1.0" standalone="no"?>
<!DOCTYPE svg PUBLIC "-//W3C//DTD SVG 20010904//EN"
 "http://www.w3.org/TR/2001/REC-SVG-20010904/DTD/svg10.dtd">
<svg version="1.0" xmlns="http://www.w3.org/2000/svg"
 width="1176.000000pt" height="574.000000pt" viewBox="0 0 1176.000000 574.000000"
 preserveAspectRatio="xMidYMid meet">

<g transform="translate(0.000000,574.000000) scale(0.100000,-0.100000)"
fill="#000000" stroke="none">
<path d="M3687 5533 c-4 -3 -7 -188 -7 -410 l0 -403 -50 0 -50 0 0 -58 0 -57
-142 -51 c-141 -50 -143 -51 -146 -82 -3 -30 -1 -32 27 -32 33 0 26 18 76
-212 l17 -77 56 -3 57 -3 3 -967 2 -968 -40 0 -40 0 -2 -207 -3 -208 -35 0
-35 0 -3 502 -2 503 -165 0 -165 0 0 -560 0 -561 -57 3 -58 3 -3 173 -2 172
-30 0 -30 0 0 610 0 610 -37 0 c-35 0 -40 4 -70 56 -18 31 -33 69 -33 85 0 16
-4 29 -10 29 -5 0 -10 -12 -10 -27 0 -16 -15 -53 -33 -83 l-33 -55 -146 -3
-146 -3 -33 57 c-18 31 -35 71 -40 88 -7 30 -7 30 -8 4 -1 -15 -17 -54 -37
-87 -33 -55 -39 -61 -70 -61 l-34 0 0 -685 0 -685 -60 0 -60 0 0 250 0 250
-187 2 c-159 3 -188 5 -189 18 -1 8 -2 113 -3 233 -1 210 -2 217 -21 217 -19
0 -20 -7 -20 -190 l0 -190 -55 0 -55 0 0 -60 0 -60 -85 0 -85 0 0 -220 0 -221
-107 3 c-77 2 -108 7 -109 16 -1 6 -2 80 -3 162 l-1 150 -140 0 -140 0 0 -90
0 -90 -85 0 -85 0 0 -230 0 -230 -130 0 -130 0 0 -110 0 -110 -105 0 -105 0 0
-170 0 -170 5740 0 5740 0 -2 163 -3 162 -150 2 -150 1 -3 166 -2 166 -220 0
-220 0 0 175 0 175 -227 2 -228 3 -3 322 -2 323 -75 0 -75 0 0 90 0 90 -105 0
-105 0 0 -90 0 -90 -160 0 -160 0 0 -95 0 -95 -40 0 -40 0 0 60 c0 53 -2 60
-20 60 -18 0 -20 -7 -20 -60 l0 -60 -65 0 -65 0 0 60 c0 47 -3 60 -15 60 -12
0 -15 -13 -15 -60 l0 -60 -40 0 -40 0 -2 -342 -3 -343 -142 -2 -143 -2 0 114
0 114 -87 3 -88 3 -3 413 -2 412 -25 0 c-22 0 -25 4 -25 35 0 34 -1 35 -39 35
-37 0 -40 2 -43 33 -3 29 -6 32 -40 35 l-38 3 0 190 c0 182 -1 189 -20 189
-19 0 -20 -7 -20 -190 l0 -190 -40 0 c-39 0 -40 -1 -40 -35 0 -34 -1 -35 -39
-35 -37 0 -40 -2 -43 -32 -2 -28 -8 -34 -30 -36 l-28 -3 -2 -412 -3 -412 -60
-3 c-110 -6 -106 -11 -104 136 l1 127 -43 5 -44 5 -3 458 -2 457 -25 0 c-25 0
-25 1 -25 85 l0 85 -40 0 -40 0 0 40 c0 38 -2 40 -30 40 -27 0 -30 3 -30 30 0
28 -2 30 -40 30 l-40 0 0 380 0 380 -25 0 -25 0 0 -380 0 -380 -40 0 c-38 0
-40 -2 -40 -29 0 -26 -4 -30 -32 -33 -27 -2 -33 -7 -34 -28 -2 -48 -4 -50 -39
-50 l-35 0 0 -85 0 -85 -30 0 -30 0 -2 -457 -3 -458 -87 -3 -88 -3 0 -194 0
-195 -60 0 -60 0 0 905 0 905 -40 0 -40 0 0 45 0 45 -45 0 c-45 0 -45 0 -45
35 l0 35 -75 0 -75 0 0 49 c0 39 -10 67 -47 137 -64 124 -65 124 -137 124
l-62 0 -57 -109 c-46 -86 -57 -118 -57 -155 l0 -46 -75 0 -75 0 0 -35 c0 -35
0 -35 -45 -35 l-45 0 0 -45 0 -45 -40 0 -40 0 0 -905 0 -905 -40 0 -40 0 0
320 0 320 -80 0 -79 0 -3 -82 -3 -83 -90 0 -90 0 -3 473 c-1 303 -6 472 -12
472 -6 0 -10 20 -10 45 l0 45 -45 0 -45 0 0 45 c0 31 -4 45 -12 44 -37 -4 -38
-1 -38 136 l0 135 -190 0 -189 0 -3 -137 c-2 -102 -6 -138 -15 -139 -7 -1 -17
-2 -23 -3 -5 0 -10 -19 -10 -41 l0 -40 -45 0 -45 0 0 -45 c0 -25 -4 -45 -10
-45 -6 0 -11 -169 -12 -472 l-3 -473 -72 -3 -73 -3 0 -204 0 -205 -80 0 -80 0
0 394 c0 341 -2 395 -15 400 -9 3 -15 19 -15 41 0 28 -4 35 -19 35 -16 0 -20
-8 -23 -37 -2 -30 -8 -39 -25 -41 -19 -3 -22 2 -25 35 -2 31 -7 39 -25 41 -21
3 -23 -1 -23 -38 l0 -41 -37 3 -38 3 -3 108 -3 107 -34 0 -35 0 0 250 0 250
-25 0 -25 0 0 -250 0 -250 -35 0 -35 0 0 -110 0 -110 -40 0 -40 0 0 40 c0 33
-3 40 -19 40 -16 0 -20 -8 -23 -37 -3 -33 -6 -38 -28 -38 -22 0 -25 5 -28 38
-3 29 -7 37 -23 37 -16 0 -19 -7 -19 -40 0 -29 -4 -40 -15 -40 -13 0 -15 -49
-15 -380 l0 -381 -67 3 -68 3 -2 70 c0 39 -2 80 -2 93 -1 20 -6 22 -61 22
l-60 0 0 970 0 970 58 0 59 0 22 108 c37 177 38 182 66 182 21 0 25 5 25 33
l0 32 -140 49 -140 48 0 59 0 58 -52 3 -53 3 -3 408 -2 407 -23 0 c-13 0 -27
-3 -30 -7z m1983 -1828 l0 -65 -160 0 -160 0 0 65 0 65 160 0 160 0 0 -65z
m-3412 -412 c-2 -31 -7 -39 -25 -41 -28 -4 -29 6 -5 47 23 41 34 39 30 -6z
m45 6 c23 -41 22 -51 -5 -47 -19 2 -24 10 -26 41 -4 45 7 47 31 6z m397 -9 c0
-36 -2 -40 -25 -40 -14 0 -25 3 -25 8 0 10 39 72 45 72 3 0 5 -18 5 -40z m56
-12 c14 -27 14 -28 -11 -28 -23 0 -25 4 -25 43 0 44 4 43 36 -15z"/>
<path d="M6992 769 c-65 -8 -115 -45 -152 -110 -22 -40 -25 -57 -28 -185 -5
-173 9 -235 66 -292 84 -84 233 -83 318 2 58 57 66 97 62 285 -3 143 -5 159
-27 198 -46 80 -130 116 -239 102z m108 -92 c13 -7 35 -28 47 -46 21 -32 23
-44 23 -185 0 -130 -3 -155 -19 -179 -56 -86 -170 -85 -228 2 -21 31 -23 45
-23 175 0 118 3 147 18 176 32 60 121 88 182 57z"/>
<path d="M3192 749 c-64 -32 -86 -70 -90 -154 -5 -118 28 -151 191 -186 51
-11 102 -27 115 -35 53 -35 52 -108 -1 -148 -24 -17 -43 -21 -110 -21 -71 0
-89 4 -131 27 l-48 28 -22 -27 c-11 -15 -21 -32 -21 -37 0 -6 25 -23 56 -39
102 -52 262 -48 338 10 42 32 61 78 61 146 0 100 -48 142 -201 175 -48 10 -98
26 -112 35 -52 34 -43 123 16 153 45 24 130 21 188 -7 l50 -23 24 30 c29 36
22 46 -51 74 -76 28 -193 28 -252 -1z"/>
<path d="M3817 763 c-7 -12 -225 -606 -229 -623 -2 -11 7 -14 37 -13 22 1 42
2 46 2 3 1 15 32 28 71 l22 70 133 0 132 0 24 -67 c13 -38 28 -71 34 -75 8 -5
77 -4 82 1 0 1 -52 144 -116 318 l-117 318 -35 3 c-20 2 -38 -1 -41 -5z m92
-267 c23 -65 41 -124 41 -132 0 -11 -21 -14 -101 -14 -92 0 -101 2 -94 18 4 9
25 69 46 132 54 160 49 148 59 130 4 -8 27 -68 49 -134z"/>
<path d="M4230 451 l0 -321 45 0 45 0 0 231 c0 126 4 228 8 225 5 -3 73 -106
153 -230 l144 -226 42 0 43 0 0 320 0 320 -45 0 -45 0 -1 -242 c0 -192 -3
-239 -12 -225 -7 10 -75 118 -153 240 l-140 222 -42 3 -42 3 0 -320z"/>
<path d="M5177 451 c-64 -175 -117 -320 -117 -322 0 -7 81 -1 88 6 4 3 16 34
28 68 l21 62 133 0 133 0 25 -68 25 -67 43 0 c24 0 44 2 44 5 0 3 -48 134
-106 293 -58 158 -111 299 -116 315 -8 23 -16 27 -47 27 l-38 0 -116 -319z
m206 52 c26 -76 47 -141 47 -145 0 -5 -45 -8 -101 -8 -77 0 -100 3 -96 13 2 6
24 72 48 145 24 72 46 132 49 132 4 0 27 -62 53 -137z"/>
<path d="M5710 450 l0 -320 40 0 40 0 0 231 c0 155 3 230 10 227 6 -2 75 -104
154 -228 l144 -225 41 -3 41 -3 0 320 0 321 -40 0 -40 0 0 -242 c-1 -220 -2
-241 -16 -223 -8 11 -78 120 -155 243 l-141 222 -39 0 -39 0 0 -320z"/>
<path d="M6300 730 l0 -40 90 0 90 0 0 -280 0 -280 46 0 45 0 -2 278 -2 277
92 3 91 3 0 39 0 40 -225 0 -225 0 0 -40z"/>
<path d="M7410 450 l0 -320 40 0 40 0 0 230 c0 127 3 230 8 230 4 0 72 -104
152 -230 l145 -229 43 -1 42 0 0 321 0 320 -42 -3 -43 -3 -5 -235 -5 -235
-150 237 -150 237 -37 1 -38 0 0 -320z"/>
<path d="M8049 760 c-1 -5 -1 -21 -1 -35 0 -14 0 -155 1 -315 l1 -290 38 4 37
3 3 321 2 322 -40 0 c-22 0 -40 -4 -41 -10z"/>
<path d="M8400 748 c-94 -48 -125 -140 -118 -343 5 -127 18 -171 69 -224 75
-79 230 -81 313 -3 57 53 66 90 66 273 0 155 -2 169 -23 210 -13 24 -43 57
-66 74 -37 26 -53 30 -119 33 -65 3 -84 0 -122 -20z m200 -93 c42 -40 53 -90
48 -230 -3 -89 -8 -128 -21 -152 -48 -89 -170 -94 -231 -10 -18 25 -21 46 -25
159 -4 155 5 194 56 238 33 30 41 32 90 28 42 -4 60 -11 83 -33z"/>
</g>
</svg>
