<?xml version="1.0" standalone="no"?>
<!DOCTYPE svg PUBLIC "-//W3C//DTD SVG 20010904//EN"
 "http://www.w3.org/TR/2001/REC-SVG-20010904/DTD/svg10.dtd">
<svg version="1.0" xmlns="http://www.w3.org/2000/svg"
 width="244.000000pt" height="245.000000pt" viewBox="0 0 244.000000 245.000000"
 preserveAspectRatio="xMidYMid meet">

<g transform="translate(0.000000,245.000000) scale(0.100000,-0.100000)"
fill="#000000" stroke="none">
<path d="M828 2309 c-2 -22 0 -43 4 -45 4 -3 8 15 8 40 0 57 -7 60 -12 5z"/>
<path d="M902 2303 c3 -36 5 -38 38 -39 41 -1 60 5 60 17 0 5 -16 9 -35 9 -28
0 -35 4 -35 19 0 14 8 21 28 24 19 3 14 4 -16 6 l-43 1 3 -37z"/>
<path d="M1030 2307 c-24 -39 -25 -47 -5 -47 9 0 21 11 27 25 6 14 14 25 18
25 4 0 13 -11 20 -25 7 -14 17 -25 21 -25 33 0 -6 75 -40 77 -15 1 -28 -8 -41
-30z"/>
<path d="M1150 2304 c-14 -35 -13 -44 5 -44 8 0 17 11 21 25 4 17 13 25 28 25
15 0 27 -9 34 -25 21 -45 39 -29 26 23 -6 19 -13 22 -55 22 -44 0 -51 -3 -59
-26z"/>
<path d="M820 2235 c0 -8 6 -26 12 -41 10 -22 10 -28 0 -32 -16 -5 -15 -22 1
-22 8 0 19 -11 25 -25 12 -25 32 -34 32 -14 0 33 -44 149 -56 149 -8 0 -14 -7
-14 -15z"/>
<path d="M925 2234 c-22 -23 -15 -45 22 -69 39 -24 37 -39 -6 -43 -38 -4 -37
-26 2 -30 70 -8 92 54 32 89 -38 23 -38 39 1 39 15 0 24 6 24 15 0 21 -54 20
-75 -1z"/>
<path d="M1037 2238 c4 -7 6 -23 4 -35 -1 -13 2 -23 8 -23 6 0 11 13 11 29 0
16 6 32 13 34 6 3 -1 6 -16 6 -20 1 -26 -3 -20 -11z"/>
<path d="M1090 2215 c0 -30 3 -35 23 -34 16 1 18 2 5 6 -10 2 -18 9 -18 14 0
5 8 9 18 9 16 1 16 2 -1 14 -18 14 -18 14 0 19 14 4 14 5 -4 6 -20 1 -23 -4
-23 -34z"/>
<path d="M1144 2215 c0 -35 10 -46 19 -22 4 10 6 10 6 0 1 -17 33 -17 49 -1
10 10 15 10 22 -2 15 -24 21 -5 9 28 -14 40 -27 41 -40 2 -13 -35 -34 -29 -25
6 7 25 -8 34 -17 12 -4 -10 -6 -10 -6 0 -2 29 -17 9 -17 -23z"/>
<path d="M1272 2233 c2 -9 10 -19 18 -21 13 -4 13 -3 2 10 -10 13 -10 17 0 21
8 3 6 6 -5 6 -12 1 -17 -5 -15 -16z"/>
<path d="M1278 2183 c7 -3 16 -2 19 1 4 3 -2 6 -13 5 -11 0 -14 -3 -6 -6z"/>
<path d="M1035 2153 c4 -10 8 -26 11 -37 6 -32 14 -31 14 2 0 18 5 32 11 32 5
0 7 5 4 10 -3 6 -15 10 -27 10 -15 0 -18 -4 -13 -17z"/>
<path d="M1090 2130 c0 -35 3 -40 23 -40 21 1 22 1 3 15 -19 14 -19 15 -1 15
18 0 18 1 -1 15 -17 13 -17 14 -1 15 24 0 22 20 -3 20 -17 0 -20 -7 -20 -40z"/>
<path d="M1145 2130 c0 -25 3 -36 9 -30 6 6 15 5 24 -2 10 -9 18 -9 34 1 17
10 22 10 29 0 15 -25 21 -1 9 35 -15 45 -25 45 -40 1 -14 -43 -34 -36 -25 8 6
26 5 30 -6 20 -8 -8 -17 -9 -23 -3 -8 6 -11 -3 -11 -30z"/>
<path d="M1272 2143 c2 -9 10 -19 18 -21 13 -4 13 -3 2 10 -10 13 -10 17 0 21
8 3 6 6 -5 6 -12 1 -17 -5 -15 -16z"/>
<path d="M1270 2100 c0 -5 7 -10 16 -10 8 0 12 5 9 10 -3 6 -10 10 -16 10 -5
0 -9 -4 -9 -10z"/>
<path d="M810 2039 c0 -14 -3 -47 -6 -73 -5 -31 -3 -46 5 -46 7 0 11 22 11 60
0 53 2 60 20 60 11 0 20 6 20 13 0 6 -11 12 -25 12 -20 0 -25 -5 -25 -26z"/>
<path d="M877 2064 c-4 -4 -7 -38 -7 -76 l0 -68 45 0 c33 0 45 4 45 15 0 10
-10 15 -30 15 -22 0 -30 5 -30 18 0 13 7 18 21 18 12 -1 24 5 26 12 3 7 -5 12
-21 12 -16 0 -26 6 -26 15 0 10 10 15 31 15 42 0 32 23 -12 28 -19 1 -38 0
-42 -4z"/>
<path d="M970 2063 c0 -5 9 -21 20 -38 19 -29 19 -29 0 -61 -24 -38 -25 -44
-5 -44 8 0 20 11 28 26 l13 25 14 -25 c7 -15 19 -26 27 -26 17 0 16 9 -5 45
-18 29 -18 31 0 60 21 36 22 45 5 45 -8 0 -19 -12 -26 -27 -12 -26 -13 -27
-23 -8 -16 29 -48 47 -48 28z"/>
<path d="M1135 2060 c-8 -13 -45 -121 -45 -132 0 -17 28 -7 33 12 3 12 14 20
25 20 12 0 23 -9 27 -20 6 -19 35 -29 35 -12 0 4 -9 36 -21 69 -19 58 -41 84
-54 63z m25 -54 c0 -8 -4 -18 -10 -21 -5 -3 -10 3 -10 14 0 12 5 21 10 21 6 0
10 -6 10 -14z"/>
<path d="M1245 2056 c-30 -22 -27 -46 11 -68 26 -15 32 -24 24 -33 -6 -7 -22
-10 -36 -7 -20 4 -25 1 -22 -9 6 -17 55 -24 72 -10 20 17 8 67 -21 80 -27 12
-23 31 8 31 23 0 25 15 3 24 -20 8 -17 8 -39 -8z"/>
<path d="M796 1853 c-3 -21 -8 -91 -12 -155 -6 -116 -6 -118 15 -118 20 0 21
4 21 130 l0 130 45 0 c41 0 45 2 45 25 0 24 -3 25 -54 25 l-54 0 -6 -37z"/>
<path d="M940 1735 l0 -155 95 0 c95 0 95 0 95 25 0 24 -2 25 -65 25 l-65 0 0
45 0 45 61 0 c57 0 60 1 57 22 -3 19 -9 22 -58 23 l-55 1 -3 37 -3 37 60 0
c58 0 61 1 61 25 0 25 -1 25 -90 25 l-90 0 0 -155z"/>
<path d="M1201 1813 l42 -78 -46 -77 -46 -78 35 0 c32 0 36 4 61 55 15 30 30
55 33 55 3 0 18 -25 33 -55 25 -51 29 -55 62 -55 20 0 34 3 32 8 -2 4 -23 40
-47 80 l-42 72 41 69 c22 38 41 72 41 75 0 3 -15 6 -32 6 -29 0 -36 -6 -57
-50 -14 -28 -27 -50 -30 -50 -4 0 -17 23 -30 50 -23 45 -28 50 -58 50 l-34 0
42 -77z"/>
<path d="M1506 1851 c-2 -3 -20 -59 -40 -123 -20 -65 -39 -125 -43 -133 -5
-13 0 -16 27 -13 29 3 35 8 44 43 12 40 12 40 60 40 49 0 49 0 64 -42 12 -38
17 -43 43 -43 17 0 29 5 28 13 0 6 -19 68 -42 137 l-42 125 -48 1 c-26 1 -49
-1 -51 -5z m83 -128 c1 -8 -12 -13 -35 -13 -29 0 -34 3 -30 18 2 9 10 37 17
61 l13 44 17 -49 c10 -27 18 -55 18 -61z"/>
<path d="M1987 1813 c-11 -10 -8 -43 3 -43 6 0 10 11 10 25 0 26 -2 29 -13 18z"/>
<path d="M2058 1813 c7 -3 16 -2 19 1 4 3 -2 6 -13 5 -11 0 -14 -3 -6 -6z"/>
<path d="M1766 1795 c-3 -8 -12 -12 -21 -9 -8 3 -15 2 -15 -2 1 -21 23 -40 72
-64 41 -20 54 -31 56 -51 4 -35 -32 -52 -84 -38 -37 11 -53 3 -54 -27 0 -26
114 -33 159 -9 32 16 41 33 41 79 0 37 -24 63 -87 95 -24 12 -43 26 -43 31 0
15 -17 12 -24 -5z"/>
<path d="M2030 1785 c0 -17 65 -22 75 -5 3 5 -7 8 -25 5 -16 -2 -30 1 -30 6 0
5 -4 9 -10 9 -5 0 -10 -7 -10 -15z"/>
<path d="M1960 1748 c0 -4 5 -8 10 -8 6 0 10 -16 10 -35 0 -19 5 -35 10 -35 6
0 10 16 10 35 0 24 5 35 15 35 10 0 15 -11 15 -35 0 -31 3 -35 25 -35 14 0 25
5 25 10 0 6 -7 10 -15 10 -18 0 -20 16 -2 23 10 4 10 6 0 6 -19 1 -15 21 4 21
9 0 13 3 9 8 -10 10 -116 10 -116 0z"/>
<path d="M2093 1715 c0 -42 2 -45 13 -30 12 17 14 17 20 2 7 -20 40 -23 47 -4
3 9 9 9 26 -1 24 -14 26 -8 10 37 -14 39 -35 40 -44 1 -4 -16 -11 -30 -16 -30
-16 0 -21 27 -9 49 6 12 7 21 1 21 -5 0 -12 -7 -15 -17 -6 -15 -8 -15 -20 2
-11 15 -13 12 -13 -30z"/>
<path d="M2232 1733 c4 -24 24 -27 24 -3 0 11 -6 20 -14 20 -7 0 -12 -8 -10
-17z"/>
<path d="M2230 1680 c0 -5 7 -10 15 -10 8 0 15 5 15 10 0 6 -7 10 -15 10 -8 0
-15 -4 -15 -10z"/>
<path d="M1960 1649 c0 -5 5 -9 10 -9 6 0 10 -13 10 -29 0 -17 5 -33 10 -36 6
-4 10 8 10 29 0 25 4 36 15 36 10 0 15 -10 15 -29 0 -29 22 -47 43 -34 6 4 0
10 -14 16 -20 8 -21 11 -6 14 20 5 23 19 5 26 -8 3 -6 6 5 6 9 1 17 5 17 10 0
5 -27 10 -60 10 -33 0 -60 -4 -60 -10z"/>
<path d="M2093 1614 c0 -40 2 -44 13 -30 10 14 14 15 21 4 11 -17 35 -17 50 2
10 13 14 12 27 -5 19 -24 20 -15 4 37 -13 45 -29 45 -42 0 -5 -18 -13 -32 -18
-32 -15 0 -20 28 -8 49 11 21 -3 31 -15 11 -5 -8 -11 -8 -19 -1 -10 8 -13 0
-13 -35z"/>
<path d="M2234 1645 c-6 -15 2 -35 15 -35 5 0 9 11 9 25 0 27 -15 34 -24 10z"/>
<path d="M2235 1580 c4 -6 11 -8 16 -5 14 9 11 15 -7 15 -8 0 -12 -5 -9 -10z"/>
<path d="M1000 1527 c-22 -8 -40 -23 -49 -41 -19 -41 0 -74 62 -104 47 -22 55
-35 38 -61 -6 -10 -22 -12 -56 -9 -35 4 -48 2 -52 -9 -9 -23 11 -35 61 -35
118 0 145 104 41 154 -35 17 -45 27 -43 43 2 16 10 20 43 20 39 0 66 19 49 35
-17 15 -60 18 -94 7z"/>
<path d="M1630 1522 c-28 -23 -20 -57 16 -66 37 -10 28 -42 -10 -38 -19 2 -27
-1 -24 -10 3 -7 17 -14 32 -16 59 -7 79 56 26 83 -32 17 -32 35 0 35 10 0 22
5 25 10 3 6 2 10 -4 10 -5 0 -16 2 -24 5 -7 3 -24 -2 -37 -13z"/>
<path d="M770 1501 c0 -17 -4 -31 -9 -31 -8 0 -71 -171 -71 -193 0 -4 11 -7
24 -7 19 0 27 8 36 36 11 33 14 35 53 32 37 -3 42 -6 49 -35 7 -28 13 -33 38
-33 l29 0 -43 128 c-42 125 -43 127 -74 130 -30 3 -32 1 -32 -27z m43 -58 c3
-16 9 -36 12 -45 6 -15 2 -18 -25 -18 -27 0 -31 3 -25 18 3 9 9 29 12 45 3 15
9 27 13 27 4 0 10 -12 13 -27z"/>
<path d="M1140 1520 c0 -5 9 -10 20 -10 18 0 20 -7 20 -60 0 -47 3 -60 15 -60
12 0 15 13 15 60 0 53 2 60 20 60 11 0 20 5 20 10 0 6 -25 10 -55 10 -30 0
-55 -4 -55 -10z"/>
<path d="M1260 1460 l0 -70 45 0 c25 0 45 5 45 10 0 6 -4 11 -10 11 -5 1 -14
3 -20 4 -5 1 -14 3 -20 4 -23 3 -9 31 15 31 16 0 25 6 25 16 0 10 -7 14 -22
12 -15 -2 -24 3 -26 15 -3 12 3 17 22 17 14 0 28 5 31 10 4 6 -12 10 -39 10
l-46 0 0 -70z"/>
<path d="M1377 1495 c16 -33 16 -37 0 -64 -21 -36 -21 -41 -2 -41 9 0 21 12
27 26 l12 25 13 -25 c8 -14 20 -26 28 -26 19 0 19 3 -4 41 -19 31 -19 32 1 65
17 29 18 34 5 34 -9 0 -22 -9 -31 -21 l-14 -21 -11 21 c-7 12 -18 21 -26 21
-12 0 -12 -6 2 -35z"/>
<path d="M1512 1503 c-21 -56 -34 -104 -29 -110 9 -8 27 7 27 23 0 22 48 18
55 -6 3 -11 13 -20 22 -20 8 0 13 6 10 13 -2 6 -13 38 -23 70 -20 64 -44 76
-62 30z m38 -39 c0 -8 -6 -14 -14 -14 -9 0 -12 7 -9 20 6 22 23 18 23 -6z"/>
<path d="M1740 1510 c0 -17 7 -20 40 -20 l40 0 0 -110 0 -110 25 0 25 0 0 110
0 110 35 0 c28 0 35 4 35 20 0 19 -7 20 -100 20 -93 0 -100 -1 -100 -20z"/>
<path d="M1970 1400 l0 -130 80 0 c73 0 80 2 80 20 0 18 -7 20 -55 20 l-55 0
0 35 c0 33 2 35 35 36 58 2 60 3 60 24 0 17 -7 20 -45 20 -43 0 -45 1 -48 33
l-3 32 55 0 c49 0 56 2 56 20 0 18 -7 20 -80 20 l-80 0 0 -130z"/>
<path d="M2175 1488 c44 -72 50 -88 39 -106 -6 -9 -23 -38 -38 -64 l-28 -48
29 0 c25 0 32 7 51 46 12 25 26 43 30 40 5 -3 17 -23 27 -46 13 -29 24 -40 41
-40 12 0 21 5 20 13 -5 24 -25 65 -35 71 -5 3 -12 20 -16 36 -4 17 -15 36 -24
42 -10 7 -28 32 -40 56 -18 35 -26 42 -52 42 l-30 0 26 -42z"/>
<path d="M190 1506 c0 -11 9 -16 30 -16 17 0 30 5 30 10 0 6 -6 10 -14 10 -8
0 -21 3 -30 6 -11 4 -16 1 -16 -10z"/>
<path d="M285 1487 c-9 -37 1 -102 20 -131 16 -23 20 -25 27 -12 5 9 6 21 3
26 -4 6 13 10 44 10 47 0 51 2 51 24 0 23 -3 25 -40 20 -35 -4 -41 -2 -49 18
-14 38 -3 48 52 48 70 0 56 6 -30 13 -69 6 -73 5 -78 -16z"/>
<path d="M513 1446 l25 -45 -38 -65 -39 -66 30 0 c25 0 33 7 51 45 12 24 25
42 30 39 5 -3 17 -23 28 -45 17 -32 26 -39 50 -39 l29 0 -39 67 -39 67 19 31
c11 18 20 35 20 39 0 13 -51 5 -56 -9 -8 -21 -21 -19 -29 5 -5 14 -15 20 -37
20 l-30 0 25 -44z"/>
<path d="M1140 1345 c0 -10 7 -15 18 -13 14 3 17 -6 20 -54 2 -42 7 -58 17
-58 10 0 15 16 17 58 2 41 7 57 17 57 8 0 16 6 19 13 3 9 -12 12 -52 12 -44 0
-56 -3 -56 -15z"/>
<path d="M1260 1290 l0 -70 45 0 c25 0 45 5 45 10 0 6 -13 10 -30 10 -23 0
-30 4 -30 20 0 15 7 20 25 20 14 0 25 5 25 10 0 6 -11 10 -25 10 -25 0 -37 29
-12 31 6 1 18 2 26 3 8 0 16 7 18 14 3 8 -9 12 -41 12 l-46 0 0 -70z"/>
<path d="M1362 1353 c2 -5 10 -20 17 -35 12 -24 12 -32 0 -55 -7 -16 -15 -31
-17 -35 -9 -19 27 -6 40 14 l15 22 12 -22 c6 -12 18 -22 26 -22 20 0 19 6 -6
41 l-20 29 20 29 c25 35 26 41 6 41 -8 0 -20 -12 -28 -26 l-13 -25 -12 25 c-6
14 -19 26 -28 26 -8 0 -14 -3 -12 -7z"/>
<path d="M1501 1298 c-12 -34 -21 -66 -21 -70 0 -17 28 -7 33 12 3 12 14 20
25 20 12 0 23 -9 27 -20 3 -11 13 -20 22 -20 8 0 13 6 10 13 -2 6 -13 38 -23
70 -24 78 -45 77 -73 -5z m49 -10 c0 -5 -6 -8 -14 -8 -9 0 -12 7 -9 21 4 16 8
17 14 7 5 -7 9 -16 9 -20z"/>
<path d="M1621 1341 c-14 -26 -6 -46 25 -59 34 -16 32 -44 -3 -40 -15 2 -28
-2 -30 -9 -5 -14 42 -18 71 -7 27 10 19 51 -14 74 -32 23 -31 43 0 38 11 -2
20 2 22 7 2 6 -11 11 -29 13 -23 2 -34 -2 -42 -17z"/>
<path d="M355 1290 c11 -12 31 -20 52 -20 26 0 33 4 33 20 0 17 -7 20 -52 20
-50 0 -51 0 -33 -20z"/>
<path d="M2235 1190 c-75 -17 -129 -65 -141 -127 -7 -36 9 -108 26 -118 6 -4
6 3 0 20 -6 15 -6 24 -1 20 5 -3 12 -1 16 5 3 5 11 10 17 10 6 0 5 -7 -3 -17
-11 -13 -11 -17 -2 -20 9 -3 10 -10 3 -24 -14 -24 -12 -24 44 7 l47 26 -20 22
c-42 45 -14 101 58 112 33 5 40 11 45 36 10 53 8 57 -26 56 -18 -1 -46 -5 -63
-8z"/>
<path d="M460 1171 c0 -11 5 -23 10 -26 6 -3 10 -15 10 -26 0 -16 7 -19 49
-19 l50 0 -2 43 -2 42 -57 3 c-52 3 -58 1 -58 -17z"/>
<path d="M640 1052 l0 -138 29 -17 c40 -23 53 -22 84 11 30 31 35 52 12 52
-12 0 -15 14 -15 70 l0 70 110 0 110 0 0 45 0 45 -165 0 -165 0 0 -138z"/>
<path d="M1040 1187 c0 -3 36 -68 80 -145 l81 -140 -20 -32 c-19 -33 -18 -67
4 -85 7 -6 15 -24 17 -40 3 -28 5 -27 32 29 l29 59 22 -44 c13 -24 39 -73 58
-109 l36 -65 62 -3 c52 -3 61 -1 56 12 -4 9 -41 73 -83 143 -43 71 -77 133
-77 138 0 6 34 69 76 139 43 71 77 133 77 138 0 5 -26 8 -57 6 l-58 -3 -53
-103 -53 -103 -54 103 -53 103 -61 3 c-34 2 -61 1 -61 -1z"/>
<path d="M1630 938 c-45 -139 -85 -266 -91 -282 -14 -45 -13 -46 45 -46 l53 0
23 80 23 80 41 1 c23 0 72 1 109 3 49 1 70 -2 76 -12 6 -11 13 -11 34 -1 15 7
27 17 28 23 0 6 -28 100 -63 208 l-63 198 -67 0 -67 0 -81 -252z m210 -70 c0
-5 -29 -8 -65 -8 -36 0 -65 4 -65 9 0 6 11 45 24 88 13 43 27 92 31 108 6 26
11 17 41 -80 18 -60 33 -113 34 -117z"/>
<path d="M1698 569 c-24 -13 -23 -36 2 -49 19 -10 20 -9 14 14 -5 20 -2 26 11
26 9 0 13 5 10 10 -8 12 -15 12 -37 -1z"/>
<path d="M1340 560 c0 -5 6 -9 13 -7 8 1 13 -13 15 -40 2 -24 7 -43 12 -43 5
0 10 19 12 43 2 27 7 41 16 40 6 -2 12 2 12 7 0 6 -18 10 -40 10 -22 0 -40 -4
-40 -10z"/>
<path d="M1430 520 c0 -49 1 -50 30 -50 17 0 30 5 30 10 0 6 -9 10 -20 10 -27
0 -25 14 3 28 l22 11 -22 0 c-13 1 -23 7 -23 15 0 9 7 13 20 11 11 -2 20 0 20
6 0 5 -13 9 -30 9 -29 0 -30 -1 -30 -50z"/>
<path d="M1512 544 c9 -20 9 -30 -1 -46 -16 -25 -4 -39 14 -15 11 15 14 15 25
2 16 -20 60 -20 60 0 0 21 27 19 39 -2 17 -32 23 -5 9 39 -20 60 -42 61 -58 2
l-13 -47 -18 22 c-17 21 -17 24 -3 47 15 21 15 24 1 24 -8 0 -18 -6 -21 -12
-5 -10 -7 -10 -12 0 -3 6 -12 12 -20 12 -11 0 -11 -5 -2 -26z m123 -14 c3 -5
1 -10 -4 -10 -6 0 -11 5 -11 10 0 6 2 10 4 10 3 0 8 -4 11 -10z"/>
<path d="M1680 479 c0 -5 5 -7 10 -4 6 3 10 8 10 11 0 2 -4 4 -10 4 -5 0 -10
-5 -10 -11z"/>
<path d="M1373 419 c10 -27 12 -28 15 -10 2 11 10 21 18 21 8 0 14 5 14 10 0
6 -13 10 -29 10 -29 0 -29 -1 -18 -31z"/>
<path d="M1430 400 c0 -49 1 -50 30 -50 17 0 30 4 30 9 0 5 -7 8 -16 7 -9 0
-19 5 -21 12 -3 7 4 12 16 12 12 0 21 5 21 10 0 6 -9 10 -20 10 -11 0 -20 5
-20 10 0 6 9 10 20 10 11 0 20 5 20 10 0 6 -13 10 -30 10 -29 0 -30 -1 -30
-50z"/>
<path d="M1512 425 c8 -19 8 -31 0 -50 -12 -27 -4 -33 17 -12 11 10 14 10 18
0 3 -7 11 -13 19 -13 11 0 11 5 2 25 -8 19 -8 31 0 50 9 20 9 25 -2 25 -8 0
-16 -6 -19 -12 -4 -10 -7 -10 -18 0 -21 20 -29 14 -17 -13z"/>
<path d="M1600 405 c-7 -25 -9 -49 -5 -53 4 -4 10 -1 12 6 3 6 13 12 23 12 10
0 20 -6 23 -12 2 -7 8 -10 12 -6 11 11 -20 93 -37 96 -10 2 -19 -11 -28 -43z
m34 0 c3 -8 1 -15 -4 -15 -6 0 -10 7 -10 15 0 8 2 15 4 15 2 0 6 -7 10 -15z"/>
<path d="M1686 361 c-4 -5 -2 -12 3 -15 5 -4 12 -2 15 3 4 5 2 12 -3 15 -5 4
-12 2 -15 -3z"/>
<path d="M1476 319 c3 -5 14 -9 24 -9 10 0 22 -4 25 -10 3 -5 11 -10 16 -10 6
0 7 5 4 10 -3 6 3 10 14 10 12 0 21 4 21 9 0 5 -25 9 -55 9 -30 0 -52 -5 -49
-9z"/>
<path d="M1600 320 c0 -5 9 -19 21 -31 l21 -21 19 28 c20 32 7 48 -15 19 -12
-16 -13 -16 -19 -1 -7 17 -27 22 -27 6z"/>
<path d="M1702 291 c-8 -23 -12 -45 -9 -47 6 -6 57 20 57 30 0 4 -6 6 -14 3
-11 -4 -16 3 -18 26 l-4 32 -12 -44z"/>
</g>
</svg>
